<?xml version="1.0" standalone="no"?>
<!DOCTYPE svg PUBLIC "-//W3C//DTD SVG 20010904//EN"
 "http://www.w3.org/TR/2001/REC-SVG-20010904/DTD/svg10.dtd">
<svg version="1.0" xmlns="http://www.w3.org/2000/svg"
 width="236.000000pt" height="236.000000pt" viewBox="0 0 236.000000 236.000000"
 preserveAspectRatio="xMidYMid meet">
<g transform="translate(0.000000,236.000000) scale(0.100000,-0.100000)"
fill="#000000" stroke="none">
<path d="M1070 2284 c-209 -56 -322 -293 -240 -504 71 -183 293 -280 472 -206
152 62 238 195 234 362 -1 69 -6 90 -34 147 -18 37 -44 80 -58 96 -56 67 -184
122 -279 120 -22 0 -65 -7 -95 -15z m239 -46 c67 -32 128 -93 164 -163 28 -54
31 -69 31 -150 0 -79 -3 -98 -27 -146 -37 -76 -117 -150 -192 -178 -160 -60
-343 17 -422 177 -35 71 -38 189 -8 271 36 97 141 191 238 211 64 14 163 4
216 -22z"/>
<path d="M1157 2159 c-45 -39 -47 -42 -32 -59 19 -21 12 -60 -9 -60 -8 0 -20
10 -28 21 -12 19 -17 20 -36 10 -18 -9 -23 -8 -32 8 -5 11 -10 29 -10 40 0 29
-20 27 -21 -1 0 -13 -2 -42 -5 -65 -6 -41 -5 -42 28 -45 28 -2 33 -7 33 -28 0
-21 -4 -25 -27 -22 -18 2 -31 -4 -41 -19 -15 -20 -17 -21 -48 -5 -18 9 -34 15
-35 13 -2 -1 15 -24 38 -50 l41 -48 23 22 c23 21 25 22 41 6 16 -16 16 -18 1
-29 -9 -7 -18 -26 -20 -43 -2 -23 -9 -31 -35 -39 -46 -13 -41 -23 12 -28 62
-4 87 6 83 34 -2 19 2 23 22 23 21 0 25 -4 22 -26 -2 -15 5 -32 18 -44 19 -17
19 -20 4 -42 -28 -43 -10 -44 39 -2 l48 42 -22 23 c-22 23 -22 25 -5 42 16 16
18 16 32 -3 10 -13 27 -20 46 -20 28 0 33 -4 41 -35 8 -31 10 -32 18 -15 4 11
8 41 8 67 1 40 -1 46 -18 41 -22 -6 -52 22 -45 42 4 10 15 12 33 9 20 -4 30
-1 34 10 7 18 62 22 72 6 3 -5 10 -10 16 -10 12 0 -48 82 -68 94 -12 6 -21 2
-34 -15 -17 -23 -19 -23 -36 -7 -16 17 -16 18 2 32 11 8 19 26 20 42 0 23 6
30 33 38 44 12 40 23 -10 27 -74 7 -88 1 -88 -32 0 -29 -13 -36 -39 -20 -7 5
-10 14 -6 21 4 7 -2 25 -14 41 -26 35 -26 40 0 73 30 38 11 32 -44 -15z m56
-133 c66 -28 91 -91 62 -157 -55 -122 -240 -69 -222 63 6 45 29 75 72 94 38
17 49 17 88 0z"/>
<path d="M1120 2008 c-14 -7 -33 -30 -43 -50 -16 -33 -16 -40 -4 -71 19 -45
52 -67 100 -67 83 0 127 97 74 163 -26 33 -88 45 -127 25z m100 -47 c16 -17
23 -71 9 -71 -5 0 -9 -7 -9 -16 0 -8 -4 -12 -10 -9 -5 3 -10 1 -10 -5 0 -8 -9
-10 -24 -6 -13 3 -26 2 -28 -4 -2 -5 -14 6 -26 25 -18 25 -22 42 -18 63 11 48
80 62 116 23z"/>
<path d="M270 1703 c-63 -22 -124 -66 -170 -124 -180 -228 -40 -572 246 -604
159 -18 305 66 377 215 27 58 31 75 31 155 1 86 -1 94 -40 170 -46 93 -109
150 -198 184 -69 25 -180 27 -246 4z m237 -35 c78 -29 152 -100 189 -181 31
-70 38 -170 16 -244 -29 -97 -128 -198 -221 -225 -77 -22 -177 -16 -242 15
-67 32 -142 109 -171 175 -32 71 -34 190 -4 264 73 178 258 262 433 196z"/>
<path d="M334 1610 c-12 -5 -28 -17 -35 -27 -10 -13 -26 -19 -51 -19 -44 0
-71 -26 -63 -61 3 -14 -4 -32 -21 -53 -21 -24 -25 -38 -21 -64 3 -19 1 -38 -5
-44 -15 -15 0 -70 22 -82 29 -15 45 -12 74 15 28 26 28 26 59 8 31 -19 53 -63
44 -87 -3 -8 -32 -22 -64 -32 l-58 -18 55 -6 c33 -3 55 -10 56 -17 1 -7 2 -16
3 -19 0 -3 10 4 21 17 l19 24 1 -22 c0 -27 8 -29 25 -6 12 17 14 17 35 -2 17
-15 23 -16 29 -6 5 7 17 12 27 11 33 -4 45 0 39 10 -3 6 2 10 12 10 15 0 16 2
3 10 -8 5 -29 10 -45 10 -39 0 -55 16 -55 54 0 62 9 75 63 91 45 13 53 13 73
0 13 -8 30 -15 38 -15 20 0 39 37 30 58 -4 9 -6 31 -5 47 2 21 -5 38 -23 54
-13 13 -22 29 -20 36 3 7 -3 19 -13 26 -10 8 -26 26 -36 42 -14 21 -25 27 -53
27 -21 0 -47 8 -61 20 -27 21 -63 25 -99 10z m101 -56 c11 -8 31 -14 45 -14
19 0 35 -14 65 -55 22 -31 41 -60 41 -65 1 -6 2 -11 4 -12 1 -2 4 -15 6 -29 3
-18 -1 -29 -11 -33 -8 -3 -15 -2 -15 2 0 4 -10 8 -21 9 -28 2 -36 11 -46 51
-5 19 -20 40 -35 49 -24 15 -27 15 -44 -1 -15 -16 -18 -16 -26 -2 -5 9 -15 13
-25 9 -11 -4 -14 -3 -9 6 6 9 3 9 -13 -1 -12 -7 -21 -17 -21 -21 0 -5 -6 -7
-14 -4 -8 3 -17 -1 -20 -9 -3 -8 -13 -14 -21 -14 -9 0 -14 -4 -11 -8 3 -5 -6
-31 -19 -59 -19 -41 -28 -51 -47 -50 -21 2 -23 5 -19 51 2 28 11 61 22 76 11
14 20 39 22 56 1 22 7 31 22 32 10 0 44 14 75 31 56 30 77 31 115 5z m32 -130
c3 -8 -2 -23 -11 -32 -15 -15 -16 -14 -16 16 0 33 16 43 27 16z m-140 -30 c2
-7 -8 -11 -25 -10 -20 1 -28 5 -24 14 5 15 44 12 49 -4z m98 -21 c11 -7 14
-13 7 -13 -6 0 -12 -5 -12 -11 0 -5 6 -7 13 -3 8 5 8 2 -2 -9 -18 -23 -5 -21
26 3 27 21 53 26 53 11 0 -5 -15 -14 -34 -21 -31 -10 -80 -50 -61 -50 5 0 0
-7 -11 -15 -12 -10 -14 -14 -4 -12 8 2 12 2 7 0 -4 -3 -5 -9 -2 -14 4 -5 -2
-6 -11 -2 -11 4 -15 2 -11 -4 4 -6 1 -13 -6 -16 -7 -3 -13 3 -13 13 0 10 4 16
8 14 12 -8 9 11 -4 24 -7 7 -8 12 -2 12 17 0 -71 49 -88 50 -31 0 -19 20 11
20 20 0 35 -8 49 -27 15 -20 24 -25 32 -17 8 8 7 14 -5 24 -18 15 -19 36 -3
54 14 14 30 11 63 -11z"/>
<path d="M1875 1687 c-112 -30 -195 -100 -246 -209 -30 -65 -34 -82 -33 -158
0 -75 4 -93 33 -154 41 -84 102 -147 178 -184 52 -24 69 -27 158 -27 121 1
169 19 249 95 73 69 108 144 114 242 6 98 -10 163 -58 238 -85 130 -248 195
-395 157z m227 -51 c73 -35 129 -91 164 -162 26 -53 29 -69 29 -154 0 -112
-21 -166 -95 -240 -64 -66 -128 -94 -220 -98 -178 -9 -313 103 -352 292 -15
68 9 166 57 241 89 140 269 192 417 121z"/>
<path d="M1926 1518 c-73 -81 -127 -187 -125 -242 3 -51 30 -107 65 -135 58
-45 174 -19 209 48 28 55 20 111 -25 175 -63 90 -71 111 -66 166 3 28 3 50 1
50 -2 0 -29 -28 -59 -62z m49 -111 c13 -29 24 -48 25 -43 0 22 50 -40 56 -71
7 -37 -9 -65 -32 -56 -10 4 -13 20 -11 57 3 65 -12 74 -31 18 -15 -46 -12 -60
24 -109 15 -21 15 -23 -21 -37 -75 -32 -141 26 -138 120 1 41 35 122 57 136 6
4 8 8 4 8 -5 0 0 8 10 18 22 24 28 20 57 -41z"/>
<path d="M570 764 c-97 -26 -191 -110 -237 -211 -38 -83 -40 -196 -6 -283 45
-114 123 -189 232 -225 74 -24 197 -17 266 16 68 32 150 116 183 186 23 50 27
71 27 153 0 88 -3 101 -33 161 -54 112 -129 176 -237 204 -72 18 -123 18 -195
-1z m243 -49 c70 -35 122 -88 160 -160 28 -54 31 -69 31 -151 1 -84 -2 -96
-34 -158 -57 -114 -150 -176 -274 -184 -149 -9 -262 55 -327 186 -29 60 -33
76 -33 152 -1 71 4 94 25 140 15 30 42 73 62 95 38 44 122 95 177 106 62 14
157 2 213 -26z"/>
<path d="M580 660 c-22 -6 -23 -8 -7 -15 9 -4 24 -5 32 -1 20 7 77 -14 72 -28
-2 -6 -17 -14 -33 -17 -25 -5 -27 -7 -10 -14 12 -5 35 -2 62 8 43 16 44 16 64
-10 11 -14 20 -31 20 -38 0 -24 -15 -25 -32 -3 -23 30 -23 5 -1 -33 10 -16 32
-34 50 -40 l32 -10 -16 -35 c-21 -42 -37 -44 -31 -4 3 19 1 29 -6 27 -6 -2
-13 -30 -16 -61 -4 -41 -11 -62 -25 -72 -23 -17 -47 -18 -63 -2 -9 9 -2 20 27
48 36 32 61 83 48 96 -2 3 -21 -5 -41 -17 -30 -17 -46 -20 -93 -15 -69 8 -97
-4 -130 -53 -41 -61 -23 -143 40 -181 37 -23 143 -27 227 -9 53 11 62 29 11
21 -16 -2 -37 1 -48 6 -16 10 -16 12 10 21 16 6 38 11 50 11 51 0 98 22 117
53 29 47 25 51 -25 21 -25 -14 -49 -24 -52 -20 -4 3 12 25 35 47 68 68 77 136
29 222 -24 44 -45 51 -22 7 17 -34 20 -70 4 -70 -5 0 -7 4 -4 10 8 13 -18 60
-52 92 -52 49 -158 77 -223 58z m44 -280 c23 -9 25 -12 14 -35 -11 -23 -8 -29
25 -61 31 -31 35 -38 22 -50 -7 -8 -19 -14 -25 -14 -6 0 -8 -5 -4 -12 4 -6 3
-8 -3 -5 -5 3 -30 7 -56 8 -26 2 -47 7 -47 13 0 5 -3 7 -6 3 -16 -16 -38 27
-35 70 3 55 18 81 51 86 14 2 28 5 32 6 4 0 18 -3 32 -9z"/>
<path d="M495 604 c-32 -34 -35 -66 -5 -39 19 17 20 17 21 -1 0 -17 1 -17 16
4 8 12 24 22 34 22 12 0 19 7 19 20 0 31 -54 27 -85 -6z"/>
<path d="M616 547 c10 -15 27 -29 37 -32 27 -10 57 4 57 26 0 16 -6 19 -37 18
-21 -1 -47 1 -57 6 -19 8 -19 8 0 -18z"/>
<path d="M1560 764 c-105 -28 -194 -105 -242 -210 -19 -41 -23 -66 -23 -154 0
-99 2 -109 32 -165 65 -125 173 -196 308 -203 99 -5 144 7 223 57 109 71 165
177 166 317 1 73 -2 87 -36 155 -86 173 -250 251 -428 203z m247 -54 c98 -49
161 -134 185 -256 27 -136 -58 -298 -191 -362 -48 -23 -69 -27 -146 -27 -73 0
-99 4 -136 23 -75 37 -125 87 -163 164 -31 62 -36 80 -36 144 0 132 63 245
171 303 110 60 209 63 316 11z"/>
<path d="M1563 639 c-47 -14 -48 -50 -5 -86 29 -25 18 -30 -23 -11 -17 8 -25
19 -25 37 l0 25 -35 -34 c-40 -39 -70 -125 -60 -171 8 -35 42 -60 93 -68 l37
-6 1 -60 c2 -105 2 -105 25 -105 17 0 20 6 19 32 -3 48 -1 55 10 38 5 -8 10
-25 10 -38 0 -38 34 -24 38 16 4 41 22 42 22 0 0 -30 0 -31 20 -13 11 10 17
21 15 26 -3 4 -1 10 4 13 13 9 21 -20 14 -54 -6 -31 1 -36 27 -20 11 7 14 27
11 84 -2 75 -2 75 26 82 102 22 119 39 110 115 -6 48 -23 84 -60 126 -18 20
-22 21 -41 8 -11 -8 -30 -15 -41 -14 -16 0 -13 4 13 16 17 9 32 20 32 25 0 32
-167 59 -237 37z m155 -49 c2 -6 9 -7 15 -3 7 4 6 -1 -2 -11 -13 -15 -12 -18
8 -23 18 -4 20 -8 9 -15 -9 -7 -7 -8 9 -5 15 3 20 1 16 -9 -2 -7 -12 -10 -20
-7 -11 4 -14 3 -9 -6 6 -8 2 -11 -10 -9 -11 2 -23 -7 -31 -22 -7 -14 -13 -21
-13 -16 0 6 -6 1 -14 -9 -8 -11 -12 -24 -9 -30 2 -5 -10 7 -27 27 -18 21 -36
36 -40 33 -4 -3 -7 9 -6 26 1 17 -3 41 -10 54 -11 22 -10 25 14 34 31 12 115
5 120 -9z m-162 -116 c40 -19 67 -63 54 -85 -13 -20 -119 -21 -142 -1 -25 21
-23 35 11 71 34 36 33 36 77 15z m287 -16 c23 -27 22 -65 -3 -78 -11 -6 -43
-9 -72 -7 -41 2 -54 7 -56 21 -15 76 80 124 131 64z m-192 -121 c0 -32 2 -37
9 -22 4 11 6 30 3 43 -10 42 14 22 27 -24 15 -54 7 -67 -41 -62 -37 3 -37 3
-23 86 7 45 24 30 25 -21z"/>
</g>
</svg>
